<svg aria-hidden="true" style="position: absolute; width: 0; height: 0; overflow: hidden;" version="1.1" xmlns="http://www.w3.org/2000/svg" xmlns:xlink="http://www.w3.org/1999/xlink">
<defs>

<symbol id="icon-logo" viewBox="0 0 32 32">
<path fill="#f59e0b" style="fill: var(--color5, #f59e0b)" d="M0 3.556c0-1.964 1.592-3.556 3.556-3.556h21.333c1.964 0 3.556 1.592 3.556 3.556v3.556c0 11.782-9.551 21.333-21.333 21.333h-3.556c-1.964 0-3.556-1.592-3.556-3.556v-21.333z"></path>
<path fill="#4be4c9" style="fill: var(--color11, #4be4c9)" d="M3.556 7.111c0-1.964 1.592-3.556 3.556-3.556h21.333c1.964 0 3.556 1.592 3.556 3.556v3.556c0 11.782-9.551 21.333-21.333 21.333h-3.556c-1.964 0-3.556-1.592-3.556-3.556v-21.333z"></path>
</symbol>
<symbol id="icon-location" viewBox="0 0 32 32">
<path fill="#f59e0b" style="fill: var(--color5, #f59e0b)" d="M16 1.333c3.183 0 6.235 1.325 8.485 3.682s3.515 5.555 3.515 8.889c0 6.007-3.87 11.537-11.464 16.599-0.16 0.107-0.346 0.163-0.536 0.163s-0.376-0.057-0.536-0.163c-7.594-5.062-11.464-10.591-11.464-16.599 0-3.334 1.264-6.532 3.515-8.889s5.303-3.682 8.485-3.682zM16 9.714c-1.061 0-2.078 0.441-2.828 1.227s-1.172 1.852-1.172 2.963c0 1.111 0.421 2.177 1.172 2.963s1.768 1.227 2.828 1.227c1.061 0 2.078-0.441 2.828-1.227s1.172-1.852 1.172-2.963c0-1.111-0.421-2.177-1.172-2.963s-1.768-1.227-2.828-1.227z"></path>
</symbol>

<symbol id="icon-arrow-right" viewBox="0 0 32 32">
<path fill="#fff" style="fill: var(--color1, #fff)" d="M13.324 6.669c-0.309-0.001-0.608 0.108-0.846 0.306-0.134 0.112-0.245 0.249-0.326 0.404s-0.131 0.324-0.147 0.498c-0.016 0.174 0.002 0.35 0.054 0.517s0.136 0.322 0.247 0.457l5.923 7.131-5.712 7.144c-0.11 0.136-0.192 0.293-0.241 0.461s-0.065 0.344-0.047 0.519c0.018 0.174 0.071 0.343 0.154 0.497s0.196 0.29 0.332 0.399c0.137 0.121 0.297 0.213 0.471 0.268s0.357 0.075 0.538 0.056c0.181-0.019 0.357-0.075 0.515-0.165s0.297-0.212 0.407-0.359l6.386-7.982c0.195-0.238 0.301-0.537 0.301-0.845s-0.106-0.607-0.301-0.845l-6.611-7.982c-0.133-0.161-0.301-0.288-0.492-0.371s-0.398-0.12-0.606-0.107z"></path>
</symbol>

</defs>
</svg>
